<svg xmlns="http://www.w3.org/2000/svg" xmlns:xlink="http://www.w3.org/1999/xlink" width="500" zoomAndPan="magnify" viewBox="0 0 375 374.999991" height="500" preserveAspectRatio="xMidYMid meet" version="1.0"><defs><clipPath id="ae3f42c977"><path d="M 10 143 L 375 143 L 375 278.625 L 10 278.625 Z M 10 143 " clip-rule="nonzero"/></clipPath><clipPath id="203abd9c11"><path d="M 116 57.375 L 205 57.375 L 205 194 L 116 194 Z M 116 57.375 " clip-rule="nonzero"/></clipPath></defs><rect x="-37.5" width="450" fill="#ffffff" y="-37.499999" height="449.999989" fill-opacity="1"/><rect x="-37.5" width="450" fill="#ffffff" y="-37.499999" height="449.999989" fill-opacity="1"/><rect x="-37.5" width="450" fill="#ffffff" y="-37.499999" height="449.999989" fill-opacity="1"/><g clip-path="url(#ae3f42c977)"><path fill="#040606" d="M 355.339844 252.246094 C 352.070312 253.613281 348.65625 254.851562 345.089844 255.9375 C 341.519531 257.035156 337.785156 257.988281 333.894531 258.792969 C 329.988281 259.605469 325.921875 260.277344 321.683594 260.796875 C 315.269531 261.597656 308.71875 262.050781 302.050781 262.238281 C 295.351562 262.4375 288.542969 262.371094 281.617188 262.117188 C 274.675781 261.871094 267.621094 261.445312 260.460938 260.925781 C 253.28125 260.40625 246 259.785156 238.605469 259.160156 C 231.308594 258.546875 223.933594 257.921875 216.535156 257.394531 C 209.128906 256.855469 201.691406 256.410156 194.265625 256.144531 C 186.832031 255.890625 179.402344 255.804688 172.023438 256.003906 C 164.621094 256.214844 157.261719 256.683594 149.976562 257.542969 C 145.390625 258.082031 140.941406 258.761719 136.601562 259.578125 C 132.253906 260.398438 128.019531 261.351562 123.890625 262.457031 C 119.746094 263.5625 115.703125 264.820312 111.75 266.226562 C 107.78125 267.632812 103.898438 269.203125 100.089844 270.921875 L 20.3125 164.859375 C 23.921875 163.414062 27.582031 162.109375 31.316406 160.945312 C 35.039062 159.796875 38.835938 158.773438 42.714844 157.878906 C 46.585938 157 50.539062 156.242188 54.597656 155.609375 C 58.644531 154.988281 62.796875 154.496094 67.058594 154.117188 C 73.476562 153.550781 79.90625 153.277344 86.367188 153.230469 C 92.816406 153.171875 99.304688 153.34375 105.851562 153.65625 C 112.386719 153.976562 118.980469 154.4375 125.652344 154.976562 C 132.316406 155.515625 139.058594 156.128906 145.878906 156.753906 C 152.605469 157.367188 159.386719 157.988281 166.179688 158.539062 C 172.964844 159.078125 179.757812 159.546875 186.523438 159.871094 C 193.277344 160.191406 199.996094 160.351562 206.640625 160.285156 C 213.261719 160.230469 219.800781 159.9375 226.210938 159.332031 C 230.21875 158.964844 234.085938 158.480469 237.816406 157.886719 C 241.539062 157.289062 245.125 156.582031 248.589844 155.769531 C 252.039062 154.957031 255.363281 154.03125 258.574219 152.992188 C 261.773438 151.953125 264.859375 150.8125 267.835938 149.542969 L 364.699219 247.691406 C 361.714844 249.355469 358.597656 250.867188 355.339844 252.246094 Z M 375.089844 248.910156 C 374.972656 248.683594 374.800781 248.445312 374.566406 248.210938 L 272.441406 145.550781 C 272.269531 145.378906 272.042969 145.207031 271.792969 145.050781 C 271.542969 144.886719 271.257812 144.738281 270.945312 144.59375 C 270.636719 144.464844 270.300781 144.339844 269.945312 144.226562 C 269.589844 144.121094 269.21875 144.035156 268.832031 143.972656 C 268.628906 143.933594 268.421875 143.902344 268.21875 143.875 C 268.015625 143.855469 267.816406 143.835938 267.617188 143.828125 C 267.417969 143.820312 267.222656 143.820312 267.035156 143.820312 C 266.839844 143.820312 266.65625 143.828125 266.476562 143.847656 C 266.324219 143.855469 266.183594 143.875 266.042969 143.902344 C 265.902344 143.925781 265.761719 143.953125 265.636719 143.980469 C 265.503906 144.007812 265.378906 144.046875 265.261719 144.085938 C 265.140625 144.121094 265.03125 144.167969 264.925781 144.214844 C 261.90625 145.644531 258.773438 146.9375 255.515625 148.097656 C 252.242188 149.261719 248.84375 150.300781 245.304688 151.199219 C 241.753906 152.105469 238.0625 152.878906 234.21875 153.523438 C 230.363281 154.164062 226.359375 154.675781 222.1875 155.0625 C 216.171875 155.621094 210.066406 155.882812 203.863281 155.941406 C 197.644531 155.996094 191.339844 155.835938 184.941406 155.535156 C 178.535156 155.222656 172.046875 154.769531 165.453125 154.230469 C 158.863281 153.703125 152.175781 153.085938 145.386719 152.464844 C 138.679688 151.839844 131.902344 151.21875 125.101562 150.667969 C 118.289062 150.113281 111.445312 149.636719 104.601562 149.308594 C 97.75 148.980469 90.890625 148.800781 84.054688 148.847656 C 77.199219 148.894531 70.367188 149.175781 63.574219 149.773438 C 58.777344 150.1875 54.117188 150.746094 49.582031 151.453125 C 45.03125 152.160156 40.609375 153.023438 36.285156 154.03125 C 31.945312 155.042969 27.714844 156.214844 23.566406 157.539062 C 19.40625 158.867188 15.328125 160.363281 11.320312 162.027344 C 11.007812 162.148438 10.746094 162.296875 10.546875 162.46875 C 10.34375 162.636719 10.199219 162.816406 10.109375 163.007812 C 10.023438 163.195312 9.988281 163.40625 10.023438 163.613281 C 10.054688 163.820312 10.152344 164.027344 10.308594 164.242188 L 93.667969 276.34375 C 93.847656 276.589844 94.074219 276.816406 94.34375 277.023438 C 94.613281 277.230469 94.921875 277.429688 95.265625 277.601562 C 95.613281 277.78125 95.988281 277.941406 96.390625 278.074219 C 96.792969 278.207031 97.21875 278.316406 97.664062 278.402344 C 97.910156 278.449219 98.160156 278.480469 98.402344 278.507812 C 98.648438 278.535156 98.894531 278.546875 99.136719 278.554688 C 99.378906 278.566406 99.613281 278.566406 99.84375 278.554688 C 100.078125 278.546875 100.304688 278.527344 100.527344 278.496094 C 100.710938 278.480469 100.890625 278.449219 101.0625 278.414062 C 101.234375 278.386719 101.402344 278.335938 101.5625 278.300781 C 101.722656 278.253906 101.878906 278.195312 102.027344 278.136719 C 102.179688 278.082031 102.316406 278.027344 102.449219 277.960938 C 106.375 275.957031 110.386719 274.152344 114.488281 272.527344 C 118.574219 270.914062 122.753906 269.476562 127.050781 268.21875 C 131.328125 266.972656 135.722656 265.894531 140.242188 265 C 144.746094 264.089844 149.390625 263.355469 154.175781 262.789062 C 161.0625 261.964844 167.980469 261.503906 174.964844 261.304688 C 181.929688 261.105469 188.957031 261.183594 196.0625 261.425781 C 203.152344 261.683594 210.324219 262.117188 217.585938 262.636719 C 224.839844 263.164062 232.179688 263.78125 239.621094 264.410156 C 246.949219 265.027344 254.335938 265.640625 261.71875 266.167969 C 269.097656 266.699219 276.480469 267.132812 283.808594 267.390625 C 291.125 267.632812 298.386719 267.703125 305.535156 267.492188 C 312.664062 267.273438 319.675781 266.785156 326.507812 265.921875 C 331.304688 265.320312 335.890625 264.554688 340.277344 263.621094 C 344.652344 262.683594 348.824219 261.585938 352.8125 260.320312 C 356.789062 259.058594 360.570312 257.617188 364.183594 256.023438 C 367.78125 254.425781 371.203125 252.660156 374.464844 250.734375 C 374.710938 250.582031 374.902344 250.402344 375.035156 250.214844 C 375.160156 250.023438 375.234375 249.816406 375.242188 249.601562 C 375.25 249.371094 375.195312 249.148438 375.089844 248.910156 " fill-opacity="1" fill-rule="nonzero"/></g><path fill="#040606" d="M 291.625 202.621094 C 289.5 203.253906 287.320312 203.828125 285.078125 204.339844 C 282.828125 204.851562 280.515625 205.300781 278.140625 205.691406 C 275.753906 206.085938 273.296875 206.417969 270.765625 206.691406 C 268.449219 206.9375 266.085938 207.136719 263.691406 207.285156 C 261.296875 207.4375 258.855469 207.542969 256.390625 207.597656 C 253.921875 207.664062 251.414062 207.683594 248.878906 207.664062 C 246.335938 207.644531 243.765625 207.597656 241.160156 207.511719 L 218.96875 170.121094 C 220.34375 170.074219 221.714844 170.027344 223.085938 169.960938 C 224.457031 169.894531 225.828125 169.820312 227.199219 169.734375 C 228.566406 169.648438 229.933594 169.554688 231.296875 169.441406 C 232.664062 169.335938 234.019531 169.214844 235.382812 169.082031 C 237.890625 168.847656 240.34375 168.574219 242.738281 168.257812 C 245.125 167.949219 247.457031 167.597656 249.742188 167.222656 C 252.027344 166.832031 254.261719 166.417969 256.449219 165.964844 C 258.636719 165.511719 260.777344 165.023438 262.882812 164.480469 L 297.824219 200.53125 C 295.8125 201.285156 293.746094 201.984375 291.625 202.621094 Z M 332.246094 244.839844 C 330.082031 245.546875 327.863281 246.179688 325.578125 246.746094 C 323.285156 247.324219 320.929688 247.824219 318.5 248.269531 C 316.0625 248.710938 313.550781 249.089844 310.957031 249.402344 C 307.550781 249.808594 304.058594 250.109375 300.484375 250.300781 C 296.910156 250.496094 293.25 250.601562 289.519531 250.609375 C 285.785156 250.628906 281.976562 250.5625 278.109375 250.441406 C 274.234375 250.308594 270.300781 250.109375 266.304688 249.875 L 242.59375 209.921875 C 245.25 210.007812 247.875 210.054688 250.46875 210.066406 C 253.0625 210.074219 255.632812 210.054688 258.167969 209.988281 C 260.699219 209.914062 263.203125 209.808594 265.671875 209.648438 C 268.136719 209.488281 270.566406 209.289062 272.964844 209.027344 C 275.511719 208.75 277.976562 208.417969 280.375 208.03125 C 282.777344 207.636719 285.097656 207.191406 287.359375 206.691406 C 289.621094 206.191406 291.8125 205.625 293.953125 205.011719 C 296.089844 204.386719 298.167969 203.707031 300.191406 202.96875 L 338.546875 242.535156 C 336.503906 243.375 334.402344 244.140625 332.246094 244.839844 Z M 255.203125 249.109375 C 253.144531 248.957031 251.070312 248.789062 248.992188 248.617188 C 246.902344 248.457031 244.808594 248.277344 242.703125 248.097656 C 240.589844 247.917969 238.472656 247.738281 236.34375 247.558594 C 232.023438 247.191406 227.679688 246.824219 223.316406 246.472656 C 218.957031 246.113281 214.574219 245.785156 210.171875 245.472656 C 205.769531 245.167969 201.34375 244.894531 196.90625 244.675781 C 192.46875 244.460938 188.011719 244.289062 183.542969 244.1875 L 158.121094 203.828125 C 161.5625 204 164.984375 204.195312 168.40625 204.421875 C 171.816406 204.640625 175.222656 204.894531 178.621094 205.160156 C 182.015625 205.425781 185.398438 205.699219 188.765625 205.992188 C 192.132812 206.277344 195.488281 206.570312 198.824219 206.859375 C 202.199219 207.164062 205.550781 207.457031 208.871094 207.738281 C 212.1875 208.023438 215.480469 208.296875 218.742188 208.550781 C 222 208.808594 225.226562 209.035156 228.425781 209.242188 C 231.617188 209.441406 234.777344 209.609375 237.902344 209.753906 L 261.335938 249.550781 C 259.308594 249.421875 257.261719 249.269531 255.203125 249.109375 Z M 169.21875 244.128906 C 166.070312 244.175781 162.914062 244.273438 159.75 244.414062 C 156.582031 244.554688 153.40625 244.746094 150.226562 244.988281 C 147.035156 245.234375 143.84375 245.539062 140.644531 245.90625 C 137.816406 246.226562 135.042969 246.597656 132.320312 247.003906 C 129.589844 247.40625 126.910156 247.863281 124.269531 248.355469 C 121.625 248.847656 119.023438 249.394531 116.457031 249.976562 C 113.882812 250.5625 111.347656 251.195312 108.828125 251.886719 L 100.039062 240.484375 L 166.070312 224.019531 L 178.640625 244.109375 C 175.507812 244.082031 172.367188 244.082031 169.21875 244.128906 Z M 84.082031 208.382812 C 86.582031 207.84375 89.121094 207.351562 91.695312 206.898438 C 94.261719 206.457031 96.871094 206.050781 99.523438 205.679688 C 102.171875 205.324219 104.871094 205 107.621094 204.714844 C 111.46875 204.320312 115.304688 204.019531 119.136719 203.792969 C 122.964844 203.574219 126.785156 203.433594 130.59375 203.355469 C 134.394531 203.28125 138.195312 203.273438 141.984375 203.320312 C 145.765625 203.363281 149.542969 203.46875 153.3125 203.613281 L 164.429688 221.390625 L 98.027344 237.875 L 76.632812 210.140625 C 79.089844 209.507812 81.570312 208.921875 84.082031 208.382812 Z M 52.570312 167.796875 C 54.945312 167.191406 57.347656 166.65625 59.792969 166.183594 C 62.238281 165.699219 64.722656 165.285156 67.257812 164.925781 C 69.789062 164.578125 72.367188 164.273438 75.011719 164.035156 C 77.457031 163.808594 79.925781 163.640625 82.421875 163.519531 C 84.914062 163.394531 87.429688 163.320312 89.972656 163.28125 C 92.511719 163.246094 95.070312 163.246094 97.65625 163.28125 C 100.238281 163.320312 102.84375 163.394531 105.476562 163.488281 L 116.613281 201.449219 C 115.707031 201.503906 114.804688 201.5625 113.894531 201.628906 C 112.988281 201.695312 112.085938 201.761719 111.175781 201.835938 C 110.261719 201.910156 109.355469 201.984375 108.445312 202.070312 C 107.53125 202.15625 106.625 202.242188 105.710938 202.335938 C 102.957031 202.609375 100.261719 202.933594 97.605469 203.289062 C 94.953125 203.648438 92.347656 204.046875 89.777344 204.492188 C 87.203125 204.933594 84.667969 205.417969 82.164062 205.9375 C 79.652344 206.464844 77.175781 207.03125 74.714844 207.644531 L 45.519531 169.789062 C 47.84375 169.0625 50.1875 168.402344 52.570312 167.796875 Z M 119.125 164.246094 C 122.15625 164.453125 125.214844 164.679688 128.296875 164.9375 C 131.378906 165.179688 134.484375 165.445312 137.613281 165.726562 C 140.734375 166.003906 143.886719 166.289062 147.054688 166.570312 C 149.375 166.789062 151.699219 166.996094 154.035156 167.203125 C 156.367188 167.410156 158.699219 167.617188 161.039062 167.816406 C 163.375 168.015625 165.722656 168.214844 168.070312 168.402344 C 170.417969 168.582031 172.765625 168.761719 175.121094 168.933594 L 178.914062 202.847656 C 174.203125 202.46875 169.464844 202.128906 164.714844 201.835938 C 159.953125 201.542969 155.175781 201.296875 150.378906 201.136719 C 145.574219 200.96875 140.75 200.871094 135.910156 200.871094 C 131.058594 200.882812 126.1875 200.976562 121.300781 201.203125 L 110.097656 163.695312 C 113.078125 163.847656 116.085938 164.035156 119.125 164.246094 Z M 188.457031 169.742188 C 191.367188 169.894531 194.273438 170.007812 197.1875 170.101562 C 200.101562 170.1875 203.011719 170.246094 205.921875 170.273438 C 208.824219 170.289062 211.730469 170.28125 214.632812 170.226562 L 236.480469 207.332031 C 233.445312 207.199219 230.371094 207.019531 227.265625 206.824219 C 224.15625 206.625 221.015625 206.398438 217.847656 206.152344 C 214.667969 205.90625 211.46875 205.640625 208.238281 205.371094 C 205 205.085938 201.742188 204.800781 198.457031 204.507812 C 197.230469 204.40625 196.007812 204.300781 194.78125 204.1875 C 193.558594 204.082031 192.328125 203.972656 191.097656 203.867188 C 189.863281 203.753906 188.632812 203.648438 187.398438 203.542969 C 186.164062 203.441406 184.929688 203.335938 183.6875 203.234375 L 179.734375 169.242188 C 182.640625 169.429688 185.542969 169.601562 188.457031 169.742188 Z M 265.289062 162.507812 C 265.179688 162.441406 265.054688 162.363281 264.914062 162.300781 C 264.777344 162.234375 264.625 162.175781 264.464844 162.117188 C 264.308594 162.0625 264.136719 162.015625 263.957031 161.980469 C 263.835938 161.941406 263.710938 161.921875 263.589844 161.902344 C 263.464844 161.886719 263.351562 161.863281 263.222656 161.851562 C 263.109375 161.847656 262.988281 161.847656 262.871094 161.847656 C 262.757812 161.847656 262.640625 161.851562 262.539062 161.863281 C 262.496094 161.863281 262.457031 161.875 262.417969 161.875 C 262.375 161.886719 262.335938 161.886719 262.296875 161.894531 C 262.261719 161.902344 262.222656 161.910156 262.183594 161.910156 C 262.144531 161.921875 262.109375 161.929688 262.074219 161.941406 C 259.882812 162.527344 257.648438 163.066406 255.367188 163.554688 C 253.082031 164.054688 250.75 164.511719 248.371094 164.914062 C 245.980469 165.332031 243.539062 165.699219 241.035156 166.03125 C 238.535156 166.363281 235.964844 166.65625 233.332031 166.90625 C 226.226562 167.589844 219.0625 167.929688 211.855469 168.023438 C 204.632812 168.117188 197.382812 167.957031 190.128906 167.636719 C 182.867188 167.316406 175.613281 166.824219 168.386719 166.246094 C 161.148438 165.671875 153.945312 165.023438 146.796875 164.371094 C 140.300781 163.78125 133.886719 163.199219 127.570312 162.6875 C 121.242188 162.175781 115.011719 161.734375 108.886719 161.429688 C 102.746094 161.136719 96.710938 160.96875 90.777344 161.015625 C 84.824219 161.050781 78.976562 161.296875 73.234375 161.816406 C 70.347656 162.082031 67.53125 162.402344 64.769531 162.800781 C 62.003906 163.1875 59.292969 163.652344 56.628906 164.179688 C 53.960938 164.707031 51.339844 165.3125 48.753906 165.980469 C 46.167969 166.65625 43.617188 167.402344 41.097656 168.222656 C 40.917969 168.28125 40.765625 168.355469 40.648438 168.441406 C 40.523438 168.523438 40.433594 168.628906 40.375 168.730469 C 40.320312 168.835938 40.296875 168.949219 40.308594 169.0625 C 40.324219 169.175781 40.375 169.289062 40.464844 169.414062 L 105.398438 254.066406 C 105.480469 254.171875 105.585938 254.277344 105.699219 254.371094 C 105.8125 254.457031 105.945312 254.550781 106.089844 254.625 C 106.234375 254.703125 106.394531 254.777344 106.558594 254.84375 C 106.726562 254.898438 106.898438 254.957031 107.078125 254.996094 C 107.222656 255.03125 107.363281 255.058594 107.503906 255.078125 C 107.648438 255.105469 107.789062 255.125 107.925781 255.136719 C 108.0625 255.144531 108.199219 255.144531 108.332031 255.144531 C 108.464844 255.144531 108.59375 255.136719 108.722656 255.117188 C 108.773438 255.117188 108.820312 255.105469 108.871094 255.097656 C 108.917969 255.089844 108.972656 255.078125 109.019531 255.070312 C 109.066406 255.058594 109.113281 255.050781 109.160156 255.042969 C 109.207031 255.03125 109.253906 255.015625 109.296875 255.003906 C 111.9375 254.238281 114.601562 253.539062 117.296875 252.886719 C 119.996094 252.246094 122.726562 251.652344 125.496094 251.109375 C 128.265625 250.5625 131.074219 250.082031 133.941406 249.636719 C 136.804688 249.203125 139.722656 248.816406 142.699219 248.476562 C 150.691406 247.550781 158.660156 247.03125 166.609375 246.8125 C 174.53125 246.597656 182.429688 246.679688 190.296875 246.957031 C 198.144531 247.21875 205.964844 247.691406 213.734375 248.25 C 221.492188 248.816406 229.203125 249.46875 236.839844 250.121094 C 243.765625 250.707031 250.582031 251.289062 257.277344 251.78125 C 263.96875 252.273438 270.53125 252.6875 276.945312 252.933594 C 283.351562 253.1875 289.605469 253.273438 295.683594 253.132812 C 301.75 252.980469 307.632812 252.605469 313.316406 251.914062 C 316.167969 251.566406 318.917969 251.148438 321.585938 250.660156 C 324.246094 250.167969 326.816406 249.601562 329.300781 248.957031 C 331.792969 248.324219 334.195312 247.605469 336.53125 246.824219 C 338.859375 246.027344 341.121094 245.167969 343.316406 244.226562 C 343.484375 244.160156 343.613281 244.074219 343.710938 243.96875 C 343.804688 243.875 343.863281 243.761719 343.886719 243.648438 C 343.914062 243.535156 343.898438 243.410156 343.851562 243.277344 C 343.800781 243.15625 343.710938 243.023438 343.59375 242.902344 L 265.578125 162.742188 C 265.496094 162.667969 265.398438 162.582031 265.289062 162.507812 " fill-opacity="1" fill-rule="nonzero"/><g clip-path="url(#203abd9c11)"><path fill="#040606" d="M 160.085938 130.308594 C 144.082031 130.308594 131.105469 117.347656 131.105469 101.375 C 131.105469 85.390625 144.082031 72.4375 160.085938 72.4375 C 176.089844 72.4375 189.066406 85.390625 189.066406 101.375 C 189.066406 117.347656 176.089844 130.308594 160.085938 130.308594 Z M 160.085938 57.433594 C 135.78125 57.433594 116.082031 77.105469 116.082031 101.375 C 116.082031 151.433594 160.085938 193.675781 160.085938 193.675781 C 160.085938 193.675781 204.089844 151.433594 204.089844 101.375 C 204.089844 77.105469 184.390625 57.433594 160.085938 57.433594 " fill-opacity="1" fill-rule="nonzero"/></g></svg>